<svg xmlns="http://www.w3.org/2000/svg" width="1024" height="256" viewBox="0 0 1024 256"><defs><linearGradient id="metal" x1="0" y1="0" x2="1" y2="1"><stop stop-color="#ffcb89"/><stop offset=".30" stop-color="#ac87d2"/><stop offset=".52" stop-color="#ffcb89"/><stop offset=".74" stop-color="#ac87d2"/><stop offset="1" stop-color="#ffcb89"/></linearGradient><radialGradient id="plush"><stop stop-color="#ffcb89"/><stop offset="1" stop-color="#ac87d2"/></radialGradient></defs><g stroke="#17141d" stroke-width="3" stroke-linejoin="round"><path d="M250 217C247 147 260 62 312 88L368 121C465 97 560 97 652 121L708 88C757 59 781 146 777 217Z" fill="#302839"/><path d="M276 152L279 99Q304 92 333 131Z M695 132Q731 89 746 104L751 154Z" fill="#ac87d2"/><path d="M250 213Q254 181 298 184Q342 183 344 215Q340 241 294 241Q255 240 250 213ZM680 215Q681 184 724 184Q775 183 777 214Q774 243 729 242Q683 242 680 215Z" fill="#302839"/></g><g stroke="#17141d" fill="none" stroke-width="3" stroke-linecap="round"><path d="M476 160Q488 171 500 160M524 160Q536 171 548 160M505 179Q512 188 519 179M275 216V235M293 220V239M311 218V237M704 216V235M722 220V239M740 218V237"/></g><path d="M505 165Q512 157 519 165L512 174Z" fill="#ac87d2"/><g fill="#ac87d2" opacity=".48"><ellipse cx="449" cy="180" rx="15" ry="7"/><ellipse cx="575" cy="180" rx="15" ry="7"/></g><path d="M215 164L222.02 177L215 190L207.98 177Z" fill="url(#metal)" stroke="#ffffff" stroke-opacity=".5" stroke-width=".7"/><path d="M805 138L810.4 148L805 158L799.6 148Z" fill="url(#metal)" stroke="#ffffff" stroke-opacity=".5" stroke-width=".7"/><path d="M830 187L833.24 193L830 199L826.76 193Z" fill="url(#metal)" stroke="#ffffff" stroke-opacity=".5" stroke-width=".7"/></svg>