<svg xmlns="http://www.w3.org/2000/svg" width="700" height="110" viewBox="0 0 700 110"><defs><linearGradient id="metal" x1="0" y1="0" x2="1" y2="1"><stop stop-color="#d9f5ff"/><stop offset=".30" stop-color="#299dff"/><stop offset=".52" stop-color="#d9f5ff"/><stop offset=".74" stop-color="#299dff"/><stop offset="1" stop-color="#d9f5ff"/></linearGradient><radialGradient id="plush"><stop stop-color="#d9f5ff"/><stop offset="1" stop-color="#299dff"/></radialGradient></defs><path d="M72 37L167 29L215 56H485L533 29L628 37L608 65L490 84H210L92 65Z" fill="#101c2a" stroke="url(#metal)" stroke-width="2"/><path d="M220 62H480M147 40L195 72M553 40L505 72" fill="none" stroke="#299dff" stroke-width="3"/><g><rect x="310" y="45" width="8" height="8" fill="#111b27"/><rect x="318" y="45" width="8" height="8" fill="#d9f5ff"/><rect x="326" y="45" width="8" height="8" fill="#111b27"/><rect x="334" y="45" width="8" height="8" fill="#d9f5ff"/><rect x="342" y="45" width="8" height="8" fill="#111b27"/><rect x="350" y="45" width="8" height="8" fill="#d9f5ff"/><rect x="358" y="45" width="8" height="8" fill="#111b27"/><rect x="366" y="45" width="8" height="8" fill="#d9f5ff"/><rect x="374" y="45" width="8" height="8" fill="#111b27"/><rect x="382" y="45" width="8" height="8" fill="#d9f5ff"/><rect x="310" y="53" width="8" height="8" fill="#d9f5ff"/><rect x="318" y="53" width="8" height="8" fill="#111b27"/><rect x="326" y="53" width="8" height="8" fill="#d9f5ff"/><rect x="334" y="53" width="8" height="8" fill="#111b27"/><rect x="342" y="53" width="8" height="8" fill="#d9f5ff"/><rect x="350" y="53" width="8" height="8" fill="#111b27"/><rect x="358" y="53" width="8" height="8" fill="#d9f5ff"/><rect x="366" y="53" width="8" height="8" fill="#111b27"/><rect x="374" y="53" width="8" height="8" fill="#d9f5ff"/><rect x="382" y="53" width="8" height="8" fill="#111b27"/></g></svg>